<?xml version="1.0" encoding="UTF-8" standalone="no"?>
<!DOCTYPE svg PUBLIC "-//W3C//DTD SVG 1.1//EN"
 "http://www.w3.org/Graphics/SVG/1.1/DTD/svg11.dtd">
<!-- Generated by graphviz version 2.26.3 (20100126.1600)
 -->
<!-- Title: G Pages: 1 -->
<svg width="144pt" height="98pt"
 viewBox="0.00 0.00 144.00 98.00" xmlns="http://www.w3.org/2000/svg" xmlns:xlink="http://www.w3.org/1999/xlink">
<g id="graph1" class="graph" transform="scale(1 1) rotate(0) translate(4 94)">
<title>G</title>
<polygon fill="white" stroke="white" points="-4,5 -4,-94 141,-94 141,5 -4,5"/>
<g id="graph2" class="cluster"><title>cluster_global</title>
<polyline fill="none" stroke="gray" points="20,-8 116,-8 "/>
<path fill="none" stroke="gray" d="M116,-8C122,-8 128,-14 128,-20"/>
<polyline fill="none" stroke="gray" points="128,-20 128,-70 "/>
<path fill="none" stroke="gray" d="M128,-70C128,-76 122,-82 116,-82"/>
<polyline fill="none" stroke="gray" points="116,-82 20,-82 "/>
<path fill="none" stroke="gray" d="M20,-82C14,-82 8,-76 8,-70"/>
<polyline fill="none" stroke="gray" points="8,-70 8,-20 "/>
<path fill="none" stroke="gray" d="M8,-20C8,-14 14,-8 20,-8"/>
<text text-anchor="middle" x="68" y="-68.1" font-family="Times Roman,serif" font-size="11.00" fill="gray">global</text>
</g>
<!-- \\Lang_Switcher -->
<g id="node2" class="node"><title>\\Lang_Switcher</title>
<a xlink:href="language-switcher.html" xlink:title="Lang_Switcher" target="_parent">
<polygon fill="none" stroke="black" points="120,-52 16,-52 16,-16 120,-16 120,-52"/>
<text text-anchor="middle" x="68" y="-31.1" font-family="Courier,monospace" font-size="11.00">Lang_Switcher</text>
</a>
</g>
</g>
</svg>
